<?xml version="1.0" standalone="no"?>
<!DOCTYPE svg PUBLIC "-//W3C//DTD SVG 20010904//EN"
 "http://www.w3.org/TR/2001/REC-SVG-20010904/DTD/svg10.dtd">
<svg version="1.0" xmlns="http://www.w3.org/2000/svg"
 width="335.000000pt" height="335.000000pt" viewBox="0 0 335.000000 335.000000"
 preserveAspectRatio="xMidYMid meet">
<metadata>
Created by potrace 1.11, written by Peter Selinger 2001-2013
</metadata>
<g transform="translate(0.000000,335.000000) scale(0.100000,-0.100000)"
fill="#000000" stroke="none">
<path d="M0 1675 l0 -1675 1675 0 1675 0 0 1675 0 1675 -1675 0 -1675 0 0
-1675z m2015 865 c187 -59 326 -174 403 -331 78 -161 75 -132 79 -881 l4 -668
-220 0 -220 0 -4 613 c-4 653 -5 666 -55 763 -105 205 -448 220 -660 29 l-52
-47 0 -679 0 -679 -220 0 -220 0 0 935 0 935 161 0 160 0 35 -77 c20 -43 38
-80 40 -82 2 -2 23 14 47 36 74 69 180 121 302 149 94 21 331 13 420 -16z"/>
</g>
</svg>
